<svg width="30" height="30" viewBox="0 0 30 30" fill="none" xmlns="http://www.w3.org/2000/svg">
<g clip-path="url(#clip0_2_196)">
<path d="M28.9444 19.3026C26.8527 16.8566 24.5454 15.5445 22.0868 15.4027C21.7558 15.3835 21.435 15.3873 21.1249 15.4087C21.576 14.7078 21.9918 13.985 22.3703 13.2414C23.2303 12.8568 25.4195 11.6707 26.5507 9.17156C27.5628 6.93543 27.4657 4.2912 26.2622 1.31204L25.7319 0L24.5165 0.725102C21.7573 2.37124 20.082 4.41934 19.5369 6.81262C19.0107 9.12345 19.7058 11.1297 20.1967 12.1659C19.7801 12.9816 19.314 13.7694 18.8011 14.5272C18.7323 13.9364 18.5934 13.3154 18.3511 12.683C17.4706 10.3843 15.5165 8.58609 12.5432 7.33815L11.2335 6.78842L10.896 8.16808C10.135 11.2798 10.4176 13.9075 11.7361 15.9782C12.6676 17.4412 13.9415 18.3273 14.9837 18.8485C14.1242 19.6 13.2067 20.2881 12.2345 20.907C11.9165 21.1094 11.5933 21.3025 11.2663 21.4882C11.3404 20.4633 11.248 19.2326 10.7397 17.9645C9.8236 15.6796 7.84194 13.9116 4.84984 12.7096L3.53159 12.18L3.21559 13.565C2.50291 16.6882 2.82629 19.3113 4.17665 21.3615C4.81591 22.3321 5.60517 23.0414 6.37229 23.5559C4.34616 24.1459 2.24199 24.4558 0.129379 24.4677V26.8925C3.11158 26.8769 6.07879 26.326 8.87068 25.2785C9.38156 26.3618 10.3478 27.8564 12.0651 28.8764C13.3256 29.6251 14.7732 29.9999 16.3931 29.9999C17.4939 29.9999 18.6745 29.8266 19.9292 29.4799L21.3029 29.1003L20.7081 27.8051C19.3672 24.8856 17.5089 22.9953 15.1845 22.1867C15.065 22.1451 14.9462 22.1081 14.8279 22.0736C15.5961 21.515 16.3287 20.9141 17.0255 20.2748C17.8301 21.1507 19.1211 22.2137 20.9337 22.6936C21.5822 22.8652 22.2467 22.951 22.9262 22.951C24.739 22.951 26.6573 22.3409 28.6529 21.1265L29.8703 20.3857L28.9444 19.3026Z" fill="white"/>
</g>
<defs>
<clipPath id="clip0_2_196">
<rect width="30" height="30" fill="white"/>
</clipPath>
</defs>
</svg>
