<svg width="34" height="34" viewBox="0 0 34 34" fill="none" xmlns="http://www.w3.org/2000/svg">
<path d="M12.0417 32.5833C13.7419 32.5935 15.4272 32.266 17 31.62C18.5711 32.2715 20.2576 32.5992 21.9583 32.5833C27.1221 32.5833 31.1667 29.8279 31.1667 26.3089V20.4411C31.1667 16.9221 27.1221 14.1667 21.9583 14.1667C21.7189 14.1667 21.4837 14.178 21.25 14.1908V7.55509C21.25 4.10834 17.2054 1.41667 12.0417 1.41667C6.87792 1.41667 2.83333 4.10834 2.83333 7.55509V26.4449C2.83333 29.8917 6.87792 32.5833 12.0417 32.5833ZM28.3333 26.3089C28.3333 27.9367 25.7153 29.75 21.9583 29.75C18.2013 29.75 15.5833 27.9367 15.5833 26.3089V24.9985C17.5018 26.1653 19.7134 26.7605 21.9583 26.7141C24.2033 26.7605 26.4149 26.1653 28.3333 24.9985V26.3089ZM21.9583 17C25.7153 17 28.3333 18.8133 28.3333 20.4411C28.3333 22.0688 25.7153 23.8808 21.9583 23.8808C18.2013 23.8808 15.5833 22.0674 15.5833 20.4411C15.5833 18.8148 18.2013 17 21.9583 17ZM12.0417 4.25001C15.7987 4.25001 18.4167 5.99251 18.4167 7.55509C18.4167 9.11767 15.7987 10.8616 12.0417 10.8616C8.28467 10.8616 5.66667 9.11909 5.66667 7.55509C5.66667 5.99109 8.28467 4.25001 12.0417 4.25001ZM5.66667 12.0162C7.59314 13.1602 9.80158 13.7418 12.0417 13.6949C14.2818 13.7418 16.4902 13.1602 18.4167 12.0162V14.6342C16.8727 15.0233 15.4568 15.8079 14.3083 16.9108C13.5635 17.0719 12.8038 17.1546 12.0417 17.1573C8.28467 17.1573 5.66667 15.4148 5.66667 13.8522V12.0162ZM5.66667 18.3133C7.59355 19.4562 9.80179 20.0372 12.0417 19.9906C12.2938 19.9906 12.5375 19.9594 12.7854 19.9467C12.7643 20.1107 12.7525 20.2757 12.75 20.4411V23.3948C12.512 23.409 12.2825 23.4543 12.0417 23.4543C8.28467 23.4543 5.66667 21.7118 5.66667 20.1478V18.3133ZM5.66667 24.6089C7.59314 25.753 9.80158 26.3346 12.0417 26.2877C12.2797 26.2877 12.5134 26.2693 12.75 26.2579V26.3089C12.7703 27.5149 13.2337 28.6712 14.0519 29.5573C13.3891 29.6825 12.7162 29.747 12.0417 29.75C8.28467 29.75 5.66667 28.0075 5.66667 26.4449V24.6089Z" fill="white"/>
</svg>
