<svg width="56" height="32" viewBox="0 0 56 32" fill="none" xmlns="http://www.w3.org/2000/svg">
<path fill-rule="evenodd" clip-rule="evenodd" d="M28 17C32.4183 17 36 13.4183 36 9C36 4.58172 32.4183 1 28 1C23.5817 1 20 4.58172 20 9C20 13.4183 23.5817 17 28 17ZM28 15.1176C31.3787 15.1176 34.1176 12.3787 34.1176 9C34.1176 5.62132 31.3787 2.88235 28 2.88235C24.6213 2.88235 21.8824 5.62132 21.8824 9C21.8824 12.3787 24.6213 15.1176 28 15.1176Z" fill="white"/>
<path d="M43 31C41.2391 23.5156 35.1907 18 28 18C20.8093 18 14.7609 23.5156 13 31H15.0029C16.6921 24.6342 21.8719 20 28 20C34.128 20 39.3079 24.6342 40.997 31H43Z" fill="white"/>
<path fill-rule="evenodd" clip-rule="evenodd" d="M16.3334 9.33333C16.3334 12.2789 13.9456 14.6667 11 14.6667C8.05444 14.6667 5.66663 12.2789 5.66663 9.33333C5.66663 6.38782 8.05444 4 11 4C13.9456 4 16.3334 6.38782 16.3334 9.33333ZM15.0785 9.33333C15.0785 11.5858 13.2524 13.4118 11 13.4118C8.74756 13.4118 6.92151 11.5858 6.92151 9.33333C6.92151 7.08087 8.74756 5.2549 11 5.2549C13.2524 5.2549 15.0785 7.08087 15.0785 9.33333Z" fill="white"/>
<path d="M18.6313 19.1229C16.74 16.7938 14.0212 15.3333 11 15.3333C6.20618 15.3333 2.17395 19.0104 1 24H2.33533C3.46143 19.7561 6.91467 16.6667 11 16.6667C13.6108 16.6667 15.9635 17.9285 17.6156 19.9469C17.943 19.6586 18.2819 19.3837 18.6313 19.1229Z" fill="white"/>
<path fill-rule="evenodd" clip-rule="evenodd" d="M50.3334 9.33333C50.3334 12.2789 47.9456 14.6667 45 14.6667C42.0544 14.6667 39.6666 12.2789 39.6666 9.33333C39.6666 6.38782 42.0544 4 45 4C47.9456 4 50.3334 6.38782 50.3334 9.33333ZM49.0785 9.33333C49.0785 11.5858 47.2524 13.4118 45 13.4118C42.7476 13.4118 40.9215 11.5858 40.9215 9.33333C40.9215 7.08087 42.7476 5.2549 45 5.2549C47.2524 5.2549 49.0785 7.08087 49.0785 9.33333Z" fill="white"/>
<path d="M45 15.3333C49.7938 15.3333 53.826 19.0104 55 24H53.6647C52.5386 19.7561 49.0853 16.6667 45 16.6667C42.3892 16.6667 40.0365 17.9285 38.3844 19.9469C38.057 19.6586 37.7181 19.3837 37.3687 19.1229C39.26 16.7938 41.9788 15.3333 45 15.3333Z" fill="white"/>
<path fill-rule="evenodd" clip-rule="evenodd" d="M28 17C32.4183 17 36 13.4183 36 9C36 4.58172 32.4183 1 28 1C23.5817 1 20 4.58172 20 9C20 13.4183 23.5817 17 28 17ZM28 15.1176C31.3787 15.1176 34.1176 12.3787 34.1176 9C34.1176 5.62132 31.3787 2.88235 28 2.88235C24.6213 2.88235 21.8824 5.62132 21.8824 9C21.8824 12.3787 24.6213 15.1176 28 15.1176Z" stroke="white"/>
<path d="M43 31C41.2391 23.5156 35.1907 18 28 18C20.8093 18 14.7609 23.5156 13 31H15.0029C16.6921 24.6342 21.8719 20 28 20C34.128 20 39.3079 24.6342 40.997 31H43Z" stroke="white"/>
<path fill-rule="evenodd" clip-rule="evenodd" d="M16.3334 9.33333C16.3334 12.2789 13.9456 14.6667 11 14.6667C8.05444 14.6667 5.66663 12.2789 5.66663 9.33333C5.66663 6.38782 8.05444 4 11 4C13.9456 4 16.3334 6.38782 16.3334 9.33333ZM15.0785 9.33333C15.0785 11.5858 13.2524 13.4118 11 13.4118C8.74756 13.4118 6.92151 11.5858 6.92151 9.33333C6.92151 7.08087 8.74756 5.2549 11 5.2549C13.2524 5.2549 15.0785 7.08087 15.0785 9.33333Z" stroke="white"/>
<path d="M18.6313 19.1229C16.74 16.7938 14.0212 15.3333 11 15.3333C6.20618 15.3333 2.17395 19.0104 1 24H2.33533C3.46143 19.7561 6.91467 16.6667 11 16.6667C13.6108 16.6667 15.9635 17.9285 17.6156 19.9469C17.943 19.6586 18.2819 19.3837 18.6313 19.1229Z" stroke="white"/>
<path fill-rule="evenodd" clip-rule="evenodd" d="M50.3334 9.33333C50.3334 12.2789 47.9456 14.6667 45 14.6667C42.0544 14.6667 39.6666 12.2789 39.6666 9.33333C39.6666 6.38782 42.0544 4 45 4C47.9456 4 50.3334 6.38782 50.3334 9.33333ZM49.0785 9.33333C49.0785 11.5858 47.2524 13.4118 45 13.4118C42.7476 13.4118 40.9215 11.5858 40.9215 9.33333C40.9215 7.08087 42.7476 5.2549 45 5.2549C47.2524 5.2549 49.0785 7.08087 49.0785 9.33333Z" stroke="white"/>
<path d="M45 15.3333C49.7938 15.3333 53.826 19.0104 55 24H53.6647C52.5386 19.7561 49.0853 16.6667 45 16.6667C42.3892 16.6667 40.0365 17.9285 38.3844 19.9469C38.057 19.6586 37.7181 19.3837 37.3687 19.1229C39.26 16.7938 41.9788 15.3333 45 15.3333Z" stroke="white"/>
</svg>
