<svg width="28" height="28" viewBox="0 0 28 28" fill="none" xmlns="http://www.w3.org/2000/svg">
<path d="M21.3831 7.31024C21.4582 7.73898 21.8321 8.05087 22.2674 8.05087H23.4325C23.9286 8.05087 24.3308 7.64867 24.3308 7.15254V0.898288C24.3308 0.402203 23.9286 0 23.4325 0H4.56757C4.07144 0 3.66924 0.402203 3.66924 0.898288V3.16071C3.66924 3.32999 3.71705 3.49579 3.80722 3.63909L7.23658 9.08998L10.4377 14.1781L7.23654 19.2662L3.80718 24.7171C3.71705 24.8604 3.66919 25.0262 3.66919 25.1955V27.1017C3.66919 27.5978 4.07139 28 4.56752 28H23.4324C23.9286 28 24.3307 27.5978 24.3307 27.1017V18.2826C24.3307 17.7865 23.9285 17.3842 23.4324 17.3842H22.2673C21.8321 17.3842 21.4581 17.6961 21.383 18.1249C20.7017 22.0153 17.8473 22.0153 17.8473 22.0153H12.4276L17.8291 14.6334C18.0328 14.3551 18.0591 13.9847 17.8969 13.6804L12.4276 3.41984H17.8473C17.8473 3.41984 20.7018 3.41984 21.3831 7.31024Z" fill="white"/>
</svg>
