<svg width="38" height="35" viewBox="0 0 38 35" fill="none" xmlns="http://www.w3.org/2000/svg">
<g clip-path="url(#clip0_2_180)">
<path d="M4.60778 33.0078L6.7106 28.8023H31.2894L33.3921 33.0078H4.60778ZM35.8948 33.5585L32.7959 27.3608C32.6272 27.0233 32.2823 26.8101 31.905 26.8101H6.09495C5.71763 26.8101 5.37278 27.0233 5.20404 27.3608L2.10506 33.5585C1.95074 33.8672 1.9672 34.2339 2.14869 34.5276C2.33018 34.8213 2.65079 35 2.99604 35H35.0038C35.349 35 35.6696 34.8213 35.8511 34.5276C36.0326 34.2339 36.0491 33.8672 35.8948 33.5585Z" fill="white" stroke="white"/>
<path d="M12.6502 16.9229H25.3499L27.9261 22.0753H10.074L12.6502 16.9229ZM8.46233 24.0675H29.5378C29.883 24.0675 30.2036 23.8888 30.3851 23.5951C30.5666 23.3015 30.5831 22.9347 30.4287 22.626L26.8565 15.4813C26.6877 15.1439 26.3428 14.9307 25.9656 14.9307H12.0346C11.6573 14.9307 11.3124 15.1439 11.1437 15.4813L7.57135 22.626C7.41696 22.9347 7.43349 23.3015 7.61498 23.5951C7.79647 23.8888 8.11708 24.0675 8.46233 24.0675Z" fill="white" stroke="white"/>
<path d="M19 4.22365L21.9865 10.1968H16.0136L19 4.22365ZM14.4019 12.1889H23.5982C23.9434 12.1889 24.264 12.0102 24.4455 11.7165C24.627 11.4229 24.6435 11.0562 24.4891 10.7474L19.891 1.55079C19.7222 1.21332 19.3773 1.00015 19 1.00015C18.6227 1.00015 18.2778 1.21332 18.109 1.55079L13.5109 10.7474C13.3566 11.0562 13.3731 11.4229 13.5546 11.7165C13.736 12.0102 14.0567 12.1889 14.4019 12.1889Z" fill="white" stroke="white"/>
</g>
<defs>
<clipPath id="clip0_2_180">
<rect width="38" height="35" fill="white"/>
</clipPath>
</defs>
</svg>
